<svg xmlns:xlink="http://www.w3.org/1999/xlink" xmlns="http://www.w3.org/2000/svg" id="Capa_1" viewBox="0 0 44 61" width="480"  height="269" ><style>.st1{fill:#e62644}</style><path d="M30.62 17.69c-.25 0-.46-.2-.46-.46 0-.25.2-.46.46-.46.25 0 .46.21.46.46 0 .26-.2.46-.46.46zM3.52 38.95c0-10.16 8.31-18.43 18.48-18.43s18.48 8.27 18.48 18.43c0 10.14-8.32 18.43-18.48 18.43-10.16.01-18.48-8.29-18.48-18.43zm25.73-28.13c.44.11.71.56.59 1-.12.44-.56.7-1 .59a.813.813 0 0 1-.59-1c.11-.43.56-.7 1-.59zM30 9.21c.25 0 .46.2.46.46 0 .25-.2.46-.46.46-.25 0-.46-.2-.46-.46s.21-.46.46-.46zm-.38-1.64c.25 0 .46.2.46.46 0 .25-.21.46-.46.46s-.46-.2-.46-.46c0-.25.21-.46.46-.46zm5.68 4.32c.25 0 .46.2.46.46 0 .25-.2.46-.46.46-.25 0-.46-.2-.46-.46s.21-.46.46-.46zm-.38-1.64c.25 0 .46.21.46.46s-.21.46-.46.46-.46-.21-.46-.46.21-.46.46-.46zm-.69-1.43c.25 0 .46.2.46.46 0 .25-.21.46-.46.46s-.46-.2-.46-.46c.01-.26.21-.46.46-.46zm-1.08-1.28c.25 0 .46.2.46.46 0 .25-.21.46-.46.46s-.46-.21-.46-.46c0-.26.2-.46.46-.46zm-1.34-.97c.25 0 .46.2.46.46 0 .25-.21.46-.46.46s-.46-.2-.46-.46.2-.46.46-.46zm-1.44-.56c.25 0 .46.2.46.46 0 .25-.21.46-.46.46s-.46-.21-.46-.46c0-.26.2-.46.46-.46zm-1.47.12c.25 0 .46.21.46.46s-.2.46-.46.46c-.25 0-.46-.21-.46-.46s.21-.46.46-.46zm-1.08-1.24c.25 0 .46.2.46.46 0 .25-.21.46-.46.46s-.46-.21-.46-.46c.01-.25.21-.46.46-.46zm-1.4-.93c.25 0 .46.2.46.46 0 .25-.2.46-.46.46-.25 0-.46-.2-.46-.46s.2-.46.46-.46zm-1.46-.54c.25 0 .46.21.46.46s-.21.46-.46.46-.46-.21-.46-.46.2-.46.46-.46zm-1.5-.26c.26 0 .46.2.46.46 0 .25-.2.46-.46.46-.25 0-.46-.2-.46-.46s.21-.46.46-.46zM9.28 15.2c-.4.22-.9.07-1.12-.32-.22-.4-.07-.9.33-1.12a.822.822 0 1 1 .79 1.44zm5.89-2.78a.836.836 0 0 1-1.01-.59.82.82 0 1 1 1.59-.41c.12.43-.14.88-.58 1zm6.83-.87c-.46 0-.82-.37-.82-.82a.826.826 0 0 1 1.65 0c0 .45-.37.82-.83.82zm-8-1.43c-.25 0-.46-.2-.46-.46 0-.25.21-.46.46-.46s.46.2.46.46-.2.46-.46.46zm.39-1.63c-.25 0-.46-.2-.46-.46 0-.25.21-.46.46-.46s.46.2.46.46c0 .25-.21.46-.46.46zM8.71 12.8c-.26 0-.46-.2-.46-.46 0-.25.21-.46.46-.46s.46.2.46.46-.21.46-.46.46zm.38-1.63c-.25 0-.46-.21-.46-.46s.21-.46.46-.46.46.21.46.46-.21.46-.46.46zm.68-1.44c-.25 0-.46-.2-.46-.46 0-.25.2-.46.46-.46.25 0 .46.2.46.46s-.2.46-.46.46zm1.09-1.27c-.25 0-.46-.21-.46-.46s.2-.46.46-.46c.25 0 .46.2.46.46 0 .25-.21.46-.46.46zm1.34-.97c-.25 0-.46-.2-.46-.46 0-.25.21-.46.46-.46s.46.2.46.46c0 .25-.21.46-.46.46zm1.44-.57c-.25 0-.46-.21-.46-.46s.2-.46.46-.46c.25 0 .46.2.46.46s-.21.46-.46.46zm1.47.13c-.25 0-.46-.21-.46-.46s.21-.46.46-.46.46.21.46.46c-.01.25-.21.46-.46.46zm1.07-1.24c-.25 0-.46-.21-.46-.46s.21-.46.46-.46.46.2.46.46-.2.46-.46.46zm1.41-.93c-.25 0-.46-.2-.46-.46 0-.25.21-.46.46-.46s.46.2.46.46c0 .25-.21.46-.46.46zm1.46-.54c-.25 0-.46-.21-.46-.46s.21-.46.46-.46.46.21.46.46-.2.46-.46.46zM22 8.82c-.25 0-.46-.2-.46-.46 0-.25.21-.46.46-.46s.46.21.46.46-.2.46-.46.46zm0-1.66c-.25 0-.46-.2-.46-.46 0-.25.21-.46.46-.46s.46.21.46.46-.2.46-.46.46zm0-1.66c-.25 0-.46-.2-.46-.46 0-.25.21-.46.46-.46s.46.2.46.46c0 .25-.2.46-.46.46zm-1.45-1.43c-.25 0-.46-.2-.46-.46 0-.25.21-.46.46-.46s.46.2.46.46-.21.46-.46.46zm14.97 9.69a.822.822 0 0 1-.79 1.44.822.822 0 0 1-.32-1.12c.21-.39.71-.54 1.11-.32zm-10.57 2.4c-.25 0-.46-.2-.46-.46 0-.25.2-.46.46-.46s.46.21.46.46c0 .26-.21.46-.46.46zm-11.57 1.53c-.25 0-.46-.2-.46-.46 0-.25.21-.46.46-.46s.46.21.46.46c0 .26-.2.46-.46.46zm5.68-1.53c-.25 0-.46-.2-.46-.46 0-.25.21-.46.46-.46s.46.21.46.46c0 .26-.21.46-.46.46z" fill="#fff"/><path class="st1" d="M25.41 12.87a2 2 0 0 0 .46.66c-.42-.06-.84-.12-1.27-.16.24-.13.44-.31.6-.53.07.02.14.03.21.03zm-6.82 0c.07 0 .14-.01.21-.03.16.22.36.4.6.53-.43.04-.85.1-1.26.16.2-.19.35-.41.45-.66zm-2.45 1.04c-.37.09-.74.18-1.1.28.2-.25.32-.56.36-.88.18.26.44.47.74.6zm-4.22 1.37c.11-.18.19-.37.24-.58l.06-.01c.11-.03.21-.07.3-.13.17.12.37.2.57.26-.39.14-.79.3-1.17.46zM22 12.47c.12.31.32.58.58.78-.19 0-.39-.01-.58-.01-.19 0-.38 0-.58.01.26-.2.47-.47.58-.78zm9.49 2.09c.09.06.19.1.3.13l.06.01c.05.2.13.4.24.58-.39-.16-.78-.32-1.18-.47.21-.05.4-.13.58-.25zm-2.52-.37c-.36-.1-.73-.19-1.1-.28.3-.13.56-.34.74-.6.04.32.16.63.36.88zm1.43-3.58c.31-.13.54-.41.61-.74.49.11 1.05.25 1.5.43.43.17.76.4 1.01.61.25.63.39 1.36.46 2.25-.3.13-.49.44-.61.74-.18.47-.18.96.33 1.31a.814.814 0 0 1-.86-.86c.09-.11.17-.25.21-.4.14-.55-.19-1.11-.74-1.25-.55-.14-1.11.19-1.26.74-.02.06-.02.12-.03.18-.47.58-1.41.28-1.45-.47.86.17 1.23-.26 1.38-.85.13-.49.08-.98-.49-1.28 0-.15-.02-.29-.06-.41z"/><path class="st1" d="M15.78 8.58c1.64-.91 3.79-1.07 5.46-.82v.12c-.09.14-.14.31-.14.49 0 .28.13.54.33.7-.31.11-.55.33-.64.74-.62.15-.79.61-.79 1.12 0 .6.24 1.11 1.12 1.16a.81.81 0 0 1-.78.57c-.36 0-.66-.23-.77-.55.02-.08.04-.17.04-.26 0-.57-.46-1.03-1.03-1.03-.57 0-1.03.46-1.03 1.03 0 .18.05.35.12.49-.02.34-.26.65-.61.74a.822.822 0 0 1-.9-.36c.84-.27.95-.82.8-1.41-.13-.49-.41-.89-1.04-.88-.12-.23-.28-.38-.46-.47.05-.48.16-.94.32-1.38zm6.99-.83c1.67-.25 3.82-.09 5.46.82.16.44.27.9.32 1.38-.18.09-.34.24-.45.47-.64-.01-.92.39-1.04.88-.15.59-.04 1.14.8 1.41-.18.29-.54.45-.9.36a.819.819 0 0 1-.61-.74c.08-.15.12-.31.12-.49 0-.57-.46-1.03-1.03-1.03-.57 0-1.03.46-1.03 1.03 0 .09.01.18.04.26-.11.32-.41.55-.77.55a.82.82 0 0 1-.78-.57c.88-.05 1.12-.56 1.12-1.16 0-.51-.17-.97-.79-1.12-.09-.41-.33-.64-.64-.74a.919.919 0 0 0 .19-1.19v-.12zM11.5 10.3c.45-.18 1.01-.32 1.5-.43.07.34.3.61.61.74-.04.12-.06.26-.06.42-.56.3-.61.79-.49 1.28.15.59.51 1.02 1.38.85-.04.75-.98 1.04-1.44.47l-.03-.18c-.14-.55-.71-.88-1.26-.74s-.88.7-.74 1.25c.04.15.11.29.21.4a.813.813 0 0 1-.86.86c.51-.36.51-.84.33-1.31-.12-.3-.3-.61-.61-.74.07-.89.21-1.62.46-2.25.23-.22.56-.45 1-.62zm11.97 5.26L22 16.1l-1.47-.55 1.47-.54 1.47.55zm-11.05 1.98l-.13.51-.05.19-.11-.06-.48-.27.13-.49.03-.11.17.06.44.17zm19.17 0l.61-.23.03.1.12.5-.48.27-.1.06-.05-.19-.13-.51z"/><path d="M28.97 14.19c-.2-.25-.32-.56-.36-.88-.19.27-.45.47-.74.6.37.09.74.18 1.1.28zm2.52.37c-.17.12-.37.2-.57.26.4.15.79.3 1.18.47-.11-.18-.19-.37-.24-.58l-.06-.01c-.12-.04-.22-.08-.31-.14zM22 12.47c-.12.31-.32.58-.58.78.19 0 .38-.01.58-.01.19 0 .39 0 .58.01-.26-.2-.46-.47-.58-.78zm-10.08 2.81c.39-.16.78-.32 1.17-.47-.21-.05-.4-.14-.57-.26-.09.06-.19.1-.3.13l-.06.01c-.05.22-.13.42-.24.59zm4.22-1.37c-.29-.13-.56-.34-.74-.6-.04.32-.16.63-.36.88.36-.1.73-.19 1.1-.28zm2.45-1.04c-.1.25-.25.47-.45.66.42-.06.84-.12 1.26-.16-.24-.13-.44-.31-.6-.53-.07.02-.14.03-.21.03zm6.82 0c-.07 0-.14-.01-.2-.03-.16.22-.37.4-.6.53.42.04.85.1 1.27.16-.18-.18-.33-.39-.43-.62l-.04-.04zm10.11.89a.83.83 0 0 0-1.12.32c-.22.4-.07.9.32 1.12.4.22.9.07 1.12-.32.23-.4.08-.9-.32-1.12zm-6.27-2.94a.82.82 0 1 0 .59 1 .818.818 0 0 0-.59-1zM30 9.21c-.25 0-.46.2-.46.46 0 .25.21.46.46.46s.46-.2.46-.46-.2-.46-.46-.46zm-.38-1.64c-.25 0-.46.2-.46.46 0 .25.21.46.46.46s.46-.2.46-.46c0-.25-.21-.46-.46-.46zm5.68 4.32c-.25 0-.46.2-.46.46 0 .25.2.46.46.46.25 0 .46-.2.46-.46s-.21-.46-.46-.46zm-.38-1.64c-.25 0-.46.21-.46.46s.2.46.46.46c.25 0 .46-.21.46-.46s-.21-.46-.46-.46zm-.69-1.43c-.25 0-.46.2-.46.46 0 .25.21.46.46.46s.46-.2.46-.46c.01-.26-.2-.46-.46-.46zm-1.08-1.28c-.25 0-.46.2-.46.46 0 .25.2.46.46.46.25 0 .46-.21.46-.46a.465.465 0 0 0-.46-.46zm-1.34-.97c-.25 0-.46.2-.46.46 0 .25.2.46.46.46.25 0 .46-.2.46-.46s-.21-.46-.46-.46zm-1.44-.56c-.25 0-.46.2-.46.46 0 .25.2.46.46.46.25 0 .46-.21.46-.46 0-.26-.21-.46-.46-.46zm-1.47.12c-.25 0-.46.21-.46.46s.21.46.46.46.46-.21.46-.46-.21-.46-.46-.46zm-1.08-1.24c-.25 0-.46.2-.46.46 0 .25.2.46.46.46.25 0 .46-.21.46-.46s-.2-.46-.46-.46zm-1.4-.93c-.25 0-.46.2-.46.46 0 .25.2.46.46.46.25 0 .46-.2.46-.46s-.21-.46-.46-.46zm-1.46-.54c-.25 0-.46.21-.46.46s.2.46.46.46c.25 0 .46-.21.46-.46s-.21-.46-.46-.46zm-1.5-.26c-.25 0-.46.2-.46.46 0 .25.21.46.46.46.26 0 .46-.2.46-.46s-.21-.46-.46-.46zM9.28 15.2a.822.822 0 0 0-.79-1.44c-.4.22-.55.72-.33 1.12.22.39.72.54 1.12.32zm5.89-2.78c.44-.11.71-.56.59-1a.813.813 0 0 0-1-.59c-.44.11-.71.56-.59 1 .11.44.56.7 1 .59zm6.83-.87c.46 0 .83-.37.83-.82a.826.826 0 0 0-1.65 0c0 .45.37.82.82.82zm-8-1.43c.25 0 .46-.2.46-.46 0-.25-.2-.46-.46-.46-.25 0-.46.2-.46.46.01.26.21.46.46.46zm.39-1.63c.25 0 .46-.2.46-.46 0-.25-.21-.46-.46-.46s-.46.2-.46.46c0 .25.2.46.46.46zM8.71 12.8c.25 0 .46-.2.46-.46 0-.25-.2-.46-.46-.46s-.46.2-.46.46.2.46.46.46zm.38-1.63c.25 0 .46-.21.46-.46s-.21-.46-.46-.46-.46.21-.46.46.2.46.46.46zm.68-1.44c.25 0 .46-.2.46-.46 0-.25-.21-.46-.46-.46s-.46.2-.46.46.21.46.46.46zm1.09-1.27c.25 0 .46-.21.46-.46s-.21-.46-.46-.46-.46.2-.46.46c0 .25.21.46.46.46zm1.34-.97c.25 0 .46-.2.46-.46 0-.25-.2-.46-.46-.46-.25 0-.46.2-.46.46 0 .25.21.46.46.46zm1.44-.57c.25 0 .46-.21.46-.46S13.89 6 13.64 6s-.46.2-.46.46.2.46.46.46zm1.47.13c.25 0 .46-.21.46-.46s-.21-.46-.46-.46-.46.21-.46.46.2.46.46.46zm1.07-1.24c.25 0 .46-.21.46-.46s-.2-.46-.46-.46c-.25 0-.46.2-.46.46s.21.46.46.46zm1.41-.93c.25 0 .46-.2.46-.46 0-.25-.2-.46-.46-.46-.25 0-.46.2-.46.46 0 .25.21.46.46.46zm1.46-.54c.25 0 .46-.21.46-.46s-.21-.46-.46-.46-.46.21-.46.46.21.46.46.46zM22 8.82c.25 0 .46-.2.46-.46 0-.25-.21-.46-.46-.46s-.46.21-.46.46.21.46.46.46zm0-1.66c.25 0 .46-.2.46-.46 0-.25-.21-.46-.46-.46s-.46.21-.46.46.21.46.46.46zm0-1.66c.25 0 .46-.2.46-.46 0-.25-.21-.46-.46-.46s-.46.2-.46.46c0 .25.21.46.46.46zm-1.45-1.43c.25 0 .46-.2.46-.46 0-.25-.21-.46-.46-.46s-.46.21-.46.46c0 .26.21.46.46.46zm12.61 11.21c.38.21.68.12 1.05-.02-.61-.31-.93-.58-.66-1.3.13-.33.28-.57.63-.67-.22-2.8-1-4.14-3.56-5.42l-.18.05c0 .03.01.06.01.1 0 .39-.22.57-.49.78.46.1.87.3.87.85 0 .46-.31.71-.71.83.13.25.15.36.13.65.52.25.64.58.5 1.11-.19.76-.65.83-1.37.65-.11 1.18 1.19 1.62 1.82.78 0-.07.01-.14.03-.2a.84.84 0 0 1 1.02-.6c.45.12.72.57.6 1.01-.04.14-.11.26-.21.37-.03.44.15.83.52 1.03zM21.29 5.04c0-.06.01-.12.02-.18-3.34-.24-5.73 2.02-6.06 5.22.3.12.41.25.54.54.58-.03.84.2.98.73.19.75-.17 1.04-.89 1.23.22.49.65.82 1.22.67.46-.12.75-.52.76-.98a.856.856 0 0 1-.12-.44c0-.46.37-.83.84-.83.46 0 .84.37.84.83 0 .09-.02.18-.04.27.13.44.5.75.98.75.59 0 .93-.43 1.01-.96-.74-.01-1.17-.2-1.17-.97 0-.55.19-.84.76-.95.13-.69.48-.73 1.05-.83.58.1.93.14 1.06.83.57.11.76.4.76.95 0 .78-.43.97-1.17.97.09.53.42.96 1.01.96.47 0 .84-.31.98-.75a.808.808 0 0 1-.05-.27c0-.46.37-.83.84-.83.46 0 .84.37.84.83 0 .16-.05.3-.13.44.01.46.3.86.76.98.57.15 1.01-.18 1.22-.67-.72-.19-1.08-.48-.89-1.23.14-.53.4-.76.98-.73.14-.29.24-.42.54-.54-.33-3.2-2.72-5.47-6.06-5.22a.76.76 0 0 1-.12.61v.81c.09.13.14.26.14.43 0 .16-.05.29-.14.43l.02.83c.08.11.12.25.12.4 0 .48-.35.62-.72.78-.36-.16-.71-.3-.71-.78 0-.16.05-.29.14-.43v-.81a.714.714 0 0 1-.14-.43c0-.16.05-.29.14-.43v-.81a.706.706 0 0 1-.14-.42zm-10.84 8.93c.27.72-.04.99-.66 1.3.37.14.67.23 1.05.02.38-.21.56-.6.52-1.01a.852.852 0 0 1-.21-.37c-.11-.45.16-.9.6-1.01.45-.11.9.15 1.02.6.02.07.02.13.03.2.63.84 1.93.39 1.82-.78-.72.18-1.18.1-1.37-.65-.14-.53-.02-.86.5-1.11-.02-.29 0-.4.13-.65-.4-.12-.71-.37-.71-.83 0-.55.41-.76.87-.85-.27-.21-.49-.4-.49-.78 0-.03 0-.07-.19-.13-2.6 1.28-3.33 2.57-3.55 5.4.36.08.51.32.64.65zm22.09 2.65c-3.19-1.5-6.76-2.34-10.53-2.34-3.77 0-7.32.83-10.51 2.34-.21.1-.45.01-.55-.21-.1-.21.01-.37.1-.56-.65.2-1.14.2-1.7-.24-1.05.71-2.26-.75-1.47-1.41-.37-.48-.38-1.01.17-1.36-.1-.17-.16-.3-.16-.5 0-.55.41-.76.86-.85-.27-.21-.49-.4-.49-.78 0-.56.44-.79.92-.84-.13-.2-.23-.34-.23-.6 0-.46.37-.83.83-.83.14 0 .28.05.42.08-.09-.18-.17-.31-.17-.52 0-.46.37-.83.83-.83.22 0 .36.08.55.18-.02-.1-.04-.21-.04-.32 0-.46.37-.83.83-.83.25 0 .4.1.6.23.09-.43.34-.79.84-.79.37 0 .58.2.77.49.2-.22.38-.37.7-.37.13 0 .25.04.37.07-.07-.16-.12-.29-.12-.47 0-.46.37-.83.83-.83.26 0 .42.11.63.24-.02-.1-.05-.24-.05-.35 0-.46.37-.83.83-.83.27 0 .42.11.62.25.1-.43.34-.79.85-.79.31 0 .48.14.69.34.16-.34.39-.6.81-.6.12 0 .22.03.33.07.26-.29.48-.42.85-.52v-.88h-.7V.95h.7V.32h.55v.63h.7v.52h-.7v.88c.36.09.59.22.85.52.11-.04.21-.07.33-.07.42 0 .65.26.81.6.2-.2.38-.34.69-.34.5 0 .75.36.84.79.2-.15.35-.25.62-.25.46 0 .83.37.83.83 0 .11-.03.24-.05.35.21-.13.36-.24.62-.24.46 0 .83.37.83.83 0 .18-.06.31-.12.47.12-.03.24-.07.37-.07.32 0 .5.15.7.37.19-.29.4-.49.77-.49.51 0 .75.36.84.8.2-.14.34-.23.6-.23.46 0 .83.37.83.83 0 .1-.02.22-.04.32.19-.1.32-.18.55-.18.46 0 .83.37.83.83 0 .21-.08.35-.16.53.14-.04.27-.08.42-.08.46 0 .83.37.83.83 0 .25-.1.4-.23.6.48.04.92.28.92.84 0 .39-.21.57-.49.78.46.1.87.3.87.85 0 .2-.06.33-.16.5.55.35.54.87.17 1.36.48.4.23 1.02-.17 1.34-.42.32-.84.38-1.29.08-.57.44-1.05.44-1.71.24l.1.2c.13.29-.2.67-.56.53zm-19.96.84l-.68-.25-.05-.11c-.05.03-.1.04-.14.04-.18.02-.17-.19-.08-.23 3.15-1.48 6.66-2.31 10.37-2.31 3.72 0 7.22.82 10.38 2.31.09.04.11.25-.08.23-.04 0-.08-.01-.14-.04l-.05.11-.68.25.2.78-.06.13c.36.17.11.42-.04.35A22.281 22.281 0 0 0 22 16.61c-3.41 0-6.63.75-9.53 2.11-.07.03-.16 0-.21-.09-.04-.09 0-.15.06-.2a.3.3 0 0 1 .11-.06l-.06-.13.21-.78zm3.76-.58l1.45-1.01-1.76-.19-1.45 1.01 1.76.19zm14.28.94c.33 0 .59-.26.59-.59 0-.33-.26-.59-.59-.59a.591.591 0 0 0 0 1.18zm-11.56-1.53c.33 0 .59-.26.59-.59a.591.591 0 1 0-.59.59zm-5.68 1.53c.33 0 .59-.26.59-.59 0-.33-.26-.59-.59-.59-.33 0-.59.26-.59.59.01.33.27.59.59.59zm11.57-1.53c.33 0 .59-.26.59-.59a.591.591 0 1 0-.59.59zm2.72.59l1.76-.19-1.45-1.01-1.76.19 1.45 1.01zm-3.82-1.32L22 14.87l-1.84.69 1.84.68 1.85-.68zM2.89 38.95c0 10.49 8.6 19.06 19.11 19.06s19.11-8.57 19.11-19.06c0-10.51-8.6-19.06-19.11-19.06S2.89 28.45 2.89 38.95zm40.3 0c0 11.63-9.51 21.13-21.19 21.13C10.32 60.08.81 50.57.81 38.95.81 27.31 10.32 17.8 22 17.8c11.68 0 21.19 9.51 21.19 21.15zm-23.97-8.98l2.76 2.81 2.59-2.73c-.91-.24-1.77-.42-2.72-.44-.88-.04-1.77.17-2.63.36zM26.5 28l4.06-4.18c5.26 3 8.79 8.63 8.79 15.07 0 4.2-1.49 8.04-4 11.04l-1.89-1.89c2.13-2.59 3.52-5.18 3.52-9.31 0-4.42-2.31-9.34-6.01-11.89l-2.44 2.49c1.25.93 2.24 1.88 3.08 3.2l-1.86 1.61c-.74-1.29-1.69-2.2-2.92-3.03l-4.85 5.11-5.03-5.18c-2.61 1.82-4.15 4.42-4.22 7.65-.09 4.29 2.7 7.28 6.61 8.58v-8.62h5.96v1.78h-3.65v2.31h3.61v2.03h-3.61v2.91c2.67.14 5.52-1.41 7.25-3.32l1.79 1.8c-2.28 2.64-5.57 3.98-9.03 4v2.66h-2.31v-2.93c-5.27-1.31-9.08-5.91-9.01-11.41.05-3.77 2.06-6.86 4.99-9.06l-2.47-2.55C9.03 30 6.97 33.81 6.8 38.77c-.13 4.39 2.14 7.9 3.57 9.39l-1.66 1.69c-2.57-3-4.09-6.68-4.09-10.9 0-6.39 3.54-12.02 8.75-15.03l4.11 4.28c1.46-.56 2.97-.86 4.54-.86 1.56.02 2.91.3 4.35.86l.13-.2z" fill="#fcbf00"/><path d="M43.83 38.95c0 11.98-9.79 21.76-21.82 21.76C9.98 60.71.19 50.92.19 38.95c0-12 9.79-21.79 21.82-21.79 12.03.01 21.82 9.8 21.82 21.79zm-.64 0c0-11.65-9.51-21.16-21.19-21.16C10.32 17.79.81 27.3.81 38.95c0 11.63 9.51 21.13 21.19 21.13 11.69.01 21.19-9.5 21.19-21.13zm-39.67 0c0 10.14 8.31 18.43 18.48 18.43 10.16 0 18.48-8.29 18.48-18.43 0-10.16-8.31-18.43-18.48-18.43-10.16.01-18.48 8.28-18.48 18.43zm-.63 0c0-10.51 8.6-19.06 19.11-19.06s19.11 8.55 19.11 19.06c0 10.49-8.6 19.06-19.11 19.06-10.51.01-19.11-8.57-19.11-19.06zm21.35-4.21l10.34 10.64c1.17-1.93 1.77-3.92 1.77-6.65 0-4.78-2.69-9.13-5.3-11.07l-1.56 1.59c1.24.98 2.13 2.05 2.94 3.4l-2.87 2.48c-.69-1.34-1.4-2.31-2.64-3.2l-2.68 2.81zm13.1 13.48a17.69 17.69 0 0 1-8.07 7.15l-1.67-1.71-3.13-3.19c-.71.15-1.45.25-2.2.27v2.67H18.7v-3.08c-5.37-1.45-9.08-6.46-9.01-11.91.01-.91.14-1.79.36-2.64L8.29 34c-.53 1.47-.82 3.05-.88 4.73-.1 3.37 1.38 7.03 3.83 9.35l-2.58 2.63c-3.03-3.4-4.69-7.23-4.69-11.83 0-6.72 3.69-12.58 9.5-15.82l4.16 4.34c1.37-.49 2.94-.75 4.37-.75 1.55.02 2.96.3 4.21.75l4.23-4.38c5.85 3.24 9.54 9.11 9.54 15.86.01 3.45-.91 6.55-2.64 9.34zM18.7 44.6l-5.34-5.43c.12 3.04 1.99 5.91 5.34 7.19V44.6zM26.5 28l-.14.14c-1.45-.55-2.8-.83-4.35-.86-1.56 0-3.08.3-4.54.86l-4.11-4.28c-5.21 3-8.75 8.63-8.75 15.03 0 4.22 1.51 7.91 4.09 10.9l1.66-1.69c-1.43-1.48-3.71-5-3.57-9.39.17-4.96 2.23-8.77 6.06-11.9l2.47 2.55c-2.93 2.2-4.94 5.29-4.99 9.06-.07 5.5 3.74 10.11 9.01 11.41v2.93h2.31V50.1c3.46-.02 6.75-1.36 9.03-4l-1.79-1.8c-1.73 1.91-4.58 3.46-7.25 3.32v-2.91h3.61v-2.03h-3.61V40.4h3.65v-1.78h-5.96v8.62c-3.91-1.3-6.69-4.29-6.61-8.58.07-3.23 1.61-5.83 4.22-7.65l5.03 5.18 4.85-5.11c1.23.83 2.18 1.74 2.92 3.03l1.86-1.61c-.84-1.32-1.83-2.27-3.08-3.2l2.44-2.49c3.69 2.55 6.01 7.48 6.01 11.89 0 4.13-1.39 6.71-3.52 9.31l1.89 1.89c2.51-3 4-6.84 4-11.04 0-6.44-3.54-12.07-8.79-15.07L26.5 28zm-7.28 1.97c.86-.19 1.75-.4 2.63-.36.95.03 1.81.2 2.72.44l-2.59 2.73-2.76-2.81zm1.26.38l1.5 1.52 1.39-1.47c-.5-.1-1.01-.15-1.54-.17-.34 0-.84.04-1.35.12zm11.11-12.81l.13.51.05.19.1-.06.48-.27-.12-.5-.03-.1-.61.23zm.95-.92c.37.14.69-.25.53-.58l-.1-.2c.65.2 1.14.2 1.71-.24.45.31.87.25 1.29-.08.41-.32.65-.94.17-1.34.37-.49.38-1.01-.17-1.36.1-.17.16-.3.16-.5 0-.55-.41-.76-.87-.85.27-.21.49-.4.49-.78 0-.56-.43-.79-.92-.84.13-.2.23-.34.23-.6 0-.46-.37-.83-.83-.83-.15 0-.28.05-.42.08.09-.15.17-.29.17-.5 0-.46-.37-.83-.83-.83-.22 0-.35.08-.55.18.01-.1.04-.21.04-.32 0-.46-.37-.83-.83-.83-.25 0-.4.1-.6.23-.1-.43-.34-.8-.84-.8-.37 0-.58.2-.77.49-.2-.22-.38-.37-.7-.37-.13 0-.25.04-.37.07.06-.17.12-.29.12-.47 0-.46-.37-.83-.83-.83-.26 0-.41.11-.62.24.02-.1.05-.23.05-.35 0-.46-.37-.83-.83-.83-.27 0-.42.11-.62.25-.1-.43-.34-.79-.84-.79-.31 0-.49.14-.69.34-.16-.35-.39-.6-.81-.6-.12 0-.22.03-.33.07-.26-.29-.49-.42-.85-.52v-.87h.7V.95h-.7V.32h-.55v.63h-.7v.52h.7v.88c-.36.09-.59.22-.85.52a.928.928 0 0 0-.33-.07c-.42 0-.65.26-.81.6-.2-.2-.38-.34-.69-.34-.51 0-.75.36-.85.79-.2-.15-.35-.25-.62-.25-.46 0-.83.37-.83.83 0 .11.03.25.05.35-.21-.13-.36-.24-.63-.24-.46 0-.83.37-.83.83 0 .18.06.31.12.47-.12-.03-.24-.07-.37-.07-.32 0-.5.15-.7.37-.19-.29-.4-.49-.77-.49-.51 0-.75.36-.84.79-.18-.14-.33-.24-.58-.24-.46 0-.83.37-.83.83 0 .1.03.22.04.32-.19-.09-.33-.18-.55-.18-.46 0-.83.37-.83.83 0 .21.08.35.16.53-.14-.04-.27-.08-.42-.08-.46 0-.83.37-.83.83 0 .25.1.4.23.6-.48.04-.92.28-.92.84 0 .39.21.57.49.78-.46.1-.86.3-.86.85 0 .2.06.33.16.5-.55.35-.54.87-.17 1.36-.79.66.42 2.12 1.47 1.41.57.44 1.05.44 1.7.24-.09.19-.2.35-.1.56.1.22.34.31.55.21 3.2-1.5 6.75-2.34 10.51-2.34 3.77-.01 7.34.83 10.54 2.33zm-20.12.92l-.44-.16-.17-.06-.03.11-.13.49.48.27.11.06.05-.19.13-.52zm-.28.79l-.64-.35.16-.64c-.24-.03-.36-.31-.25-.5-.27.04-.53-.1-.65-.35-.05-.11-.07-.23-.05-.35-.49.1-.99-.01-1.38-.29-1.12.67-2.45-.93-1.72-1.68-.32-.48-.24-1.07.18-1.39-.06-.13-.1-.28-.1-.43 0-.43.27-.8.64-.95a1.04 1.04 0 0 1-.27-.69c0-.48.34-.88.78-.99a1.02 1.02 0 0 1 .93-1.46h.09c-.02-.09-.03-.17-.03-.26a1.029 1.029 0 0 1 1.34-.98 1.04 1.04 0 0 1 1.5-.91c.14-.39.52-.68.97-.68.32 0 .6.15.79.38.18-.16.42-.25.68-.25h.07c-.01-.07-.02-.14-.02-.21 0-.57.46-1.02 1.03-1.02.14 0 .26.03.38.07.01-.56.46-1.01 1.03-1.01.18 0 .35.05.5.13a1.021 1.021 0 0 1 1.59-.45c.18-.28.5-.48.87-.48.09 0 .18.01.27.04.17-.18.37-.32.6-.4l.11-.04v-.53h-.7V.75h.7V.12h.95v.63h.7v.91h-.7v.53l.11.04c.23.09.44.23.6.4.09-.02.18-.04.27-.04.37 0 .69.19.87.48.17-.13.39-.22.63-.22.44 0 .82.28.96.67a1.03 1.03 0 0 1 1.53.88c.12-.05.25-.07.38-.07a1.026 1.026 0 0 1 1.01 1.23h.07c.26 0 .49.1.68.25.19-.23.47-.38.79-.38.45 0 .82.28.97.68.12-.06.28-.11.45-.11.56 0 1.02.45 1.03 1.02a1.029 1.029 0 0 1 1.34.98c0 .09-.01.17-.03.26h.09c.57 0 1.03.46 1.03 1.02 0 .16-.04.31-.1.44.45.11.78.51.78.99 0 .27-.1.5-.26.69.38.15.65.52.65.95 0 .16-.04.3-.1.43.41.32.49.91.17 1.39.46.47.06 1.22-.32 1.52-.38.29-.89.47-1.4.16-.4.28-.9.39-1.38.29.06.41-.31.76-.71.7.11.19-.01.47-.24.5l.15.64-.64.35c.08.11.11.25.05.38-.08.17-.28.27-.47.18A22.09 22.09 0 0 0 22 16.8c-3.38 0-6.57.74-9.44 2.09-.19.09-.39-.01-.47-.18a.354.354 0 0 1 .05-.38zm.44-.87l-.2.78.06.13c-.04.02-.08.04-.11.06-.06.05-.1.11-.06.2.04.09.13.12.21.09 2.9-1.36 6.12-2.11 9.53-2.11 3.42 0 6.64.75 9.53 2.11.15.07.4-.18.04-.35l.06-.13-.2-.78.68-.25.05-.11c.05.02.1.04.14.04.19.02.17-.19.08-.23A24.25 24.25 0 0 0 22 14.6c-3.71 0-7.22.82-10.37 2.31-.09.04-.1.25.08.23.04 0 .08-.01.14-.04l.05.11.68.25zm15.58-9.07c-.81-2.03-2.7-3.5-5.24-3.35 0 .18-.05.34-.14.48v.69c.09.14.14.31.14.49s-.05.35-.14.49v.43c1.74-.25 3.78-.06 5.38.77zm-5.39-.52c.09.14.14.31.14.49 0 .28-.13.54-.33.7.31.11.55.33.64.74.62.15.79.61.79 1.12 0 .6-.24 1.11-1.12 1.16.1.33.41.57.78.57.36 0 .66-.23.77-.55-.02-.08-.04-.17-.04-.26 0-.57.46-1.03 1.03-1.03.57 0 1.03.46 1.03 1.03 0 .18-.05.34-.12.49a.819.819 0 0 0 1.51.38c-.84-.27-.95-.82-.8-1.41.12-.49.4-.89 1.04-.88.12-.23.27-.38.45-.47-.05-.48-.16-.94-.32-1.38-1.64-.91-3.79-1.07-5.46-.82v.12zm-1.48-2.83c0 .16.05.29.14.43v.81c-.09.13-.14.26-.14.43 0 .16.05.29.14.43v.81c-.09.13-.14.26-.14.43 0 .48.35.62.71.78.36-.16.72-.3.72-.78 0-.15-.05-.29-.12-.4l-.02-.83c.09-.13.14-.26.14-.43a.76.76 0 0 0-.14-.43v-.83c.09-.13.14-.26.14-.43 0-.06-.01-.12-.02-.18 3.34-.24 5.73 2.02 6.06 5.22-.3.12-.41.25-.54.54-.58-.03-.84.2-.98.73-.2.75.17 1.04.89 1.23-.22.49-.65.82-1.22.67-.46-.12-.75-.52-.76-.98.08-.14.13-.28.13-.44a.83.83 0 0 0-.84-.83c-.46 0-.84.37-.84.83 0 .09.02.18.05.27-.13.44-.51.75-.98.75-.59 0-.93-.43-1.01-.96.74-.01 1.17-.2 1.17-.97 0-.55-.2-.84-.76-.95-.14-.68-.49-.72-1.07-.82-.58.1-.92.14-1.05.83-.57.11-.76.4-.76.95 0 .78.42.97 1.17.97-.09.53-.43.96-1.01.96-.47 0-.84-.31-.98-.75.03-.09.04-.17.04-.27a.83.83 0 0 0-.84-.83c-.46 0-.84.37-.84.83 0 .16.05.3.12.44-.01.46-.3.86-.76.98-.57.15-1.01-.18-1.22-.67.72-.19 1.08-.48.89-1.23-.14-.53-.4-.76-.98-.73-.14-.29-.24-.42-.54-.54.33-3.2 2.72-5.47 6.06-5.22 0 .06-.01.12-.01.18zm-5.51 3.54c-.16.44-.26.9-.32 1.38.18.09.34.24.46.47.64-.01.92.39 1.04.88.15.59.04 1.14-.8 1.41.18.29.54.45.9.36.35-.09.59-.4.61-.74a.988.988 0 0 1-.12-.49c0-.57.46-1.03 1.03-1.03.57 0 1.03.46 1.03 1.03 0 .09-.01.18-.04.26.11.32.41.55.77.55.36 0 .67-.24.78-.57-.88-.05-1.12-.56-1.12-1.16 0-.51.17-.97.79-1.12.1-.41.33-.64.64-.74a.919.919 0 0 1-.19-1.19v-.13c-1.67-.24-3.82-.08-5.46.83zm5.31-3.54c-2.54-.14-4.44 1.32-5.25 3.35 1.59-.82 3.64-1.03 5.39-.77v-.43a.906.906 0 0 1-.14-.49c0-.18.05-.35.14-.49v-.69a.963.963 0 0 1-.14-.48zm10.34 9.32l.06-.04c.12.09.21.15.35.18l.18.03c.07.36.2.65.45.93l-.11.16c-.61-.27-1.23-.51-1.86-.73l.03-.19c.32-.04.64-.15.9-.34zm.06.2c-.17.12-.37.2-.57.26.4.15.79.3 1.18.47-.11-.18-.19-.37-.24-.58l-.06-.01c-.12-.04-.22-.08-.31-.14zm-9.58-2.49h.19c.07.53.42.98.89 1.2l-.05.19c-.31-.01-.63-.02-.94-.02-.31 0-.62.01-.93.02l-.05-.19c.47-.23.81-.67.89-1.2zm.09.4c-.12.31-.32.58-.58.78.19 0 .38-.01.58-.01.19 0 .39 0 .58.01-.26-.2-.46-.47-.58-.78zm-10.35 3.14l-.11-.16c.25-.27.38-.56.45-.93.24-.03.33-.06.53-.21.3.22.59.35.96.37l.02.19c-.62.23-1.24.47-1.85.74zm.27-.33c.39-.16.78-.32 1.17-.47-.21-.05-.4-.14-.57-.26-.09.06-.19.1-.3.13l-.06.01c-.05.22-.13.42-.24.59zm4.61-1.45v.19c-.6.13-1.2.28-1.79.46l-.09-.17c.39-.33.6-.84.55-1.37l.19-.05c.2.49.64.84 1.14.94zm-.39.08c-.29-.13-.56-.34-.74-.6-.04.32-.16.63-.36.88.36-.1.73-.19 1.1-.28zm1.66-.13l-.07-.18c.36-.23.58-.54.72-.93h.12c.11 0 .21-.02.31-.06.24.35.53.59.94.73l-.02.19c-.68.06-1.34.14-2 .25zm.79-.91c-.1.25-.25.47-.45.66.42-.06.84-.12 1.26-.16-.24-.13-.44-.31-.6-.53-.07.02-.14.03-.21.03zm5.62.66l-.02-.19c.41-.13.7-.38.94-.73.11.03.2.06.31.06h.12c.14.4.36.71.72.93l-.07.18c-.66-.11-1.33-.19-2-.25zm1.2-.66c-.07 0-.14-.01-.2-.03-.16.22-.37.4-.6.53.42.04.85.1 1.27.16-.18-.18-.33-.39-.43-.62l-.04-.04zm3.94 1.44l-.09.17c-.59-.17-1.18-.33-1.79-.46v-.19c.5-.1.94-.45 1.14-.94l.19.05c-.05.53.16 1.04.55 1.37zm-.38-.12c-.2-.25-.32-.56-.36-.88-.19.27-.45.47-.74.6.37.09.74.18 1.1.28zm.28-3.37a.82.82 0 1 0 .59 1 .818.818 0 0 0-.59-1zm.04-.12a.955.955 0 1 1-.48 1.85.955.955 0 1 1 .48-1.85zM30 9.21c-.25 0-.46.2-.46.46 0 .25.21.46.46.46s.46-.2.46-.46-.2-.46-.46-.46zm0-.13a.591.591 0 1 1-.59.59c0-.33.27-.59.59-.59zm-.38-1.51c-.25 0-.46.2-.46.46 0 .25.21.46.46.46s.46-.2.46-.46c0-.25-.21-.46-.46-.46zm0-.13a.591.591 0 1 1-.002 1.182.591.591 0 0 1 .002-1.182zm5.68 4.45c-.25 0-.46.2-.46.46 0 .25.2.46.46.46.25 0 .46-.2.46-.46s-.21-.46-.46-.46zm0-.13a.591.591 0 1 1-.002 1.182.591.591 0 0 1 .002-1.182zm-.38-1.51c-.25 0-.46.21-.46.46s.2.46.46.46c.25 0 .46-.21.46-.46s-.21-.46-.46-.46zm0-.13c.33 0 .59.26.59.59 0 .33-.26.59-.59.59-.33 0-.59-.26-.59-.59 0-.33.26-.59.59-.59zm-.69-1.3c-.25 0-.46.2-.46.46 0 .25.21.46.46.46s.46-.2.46-.46c.01-.26-.2-.46-.46-.46zm0-.14a.591.591 0 1 1-.59.59c0-.32.27-.59.59-.59zm-1.08-1.14c-.25 0-.46.2-.46.46 0 .25.2.46.46.46.25 0 .46-.21.46-.46a.465.465 0 0 0-.46-.46zm0-.13c.33 0 .59.26.59.59 0 .33-.26.59-.59.59-.33 0-.59-.26-.59-.59 0-.33.26-.59.59-.59zm-1.34-.84c-.25 0-.46.2-.46.46 0 .25.2.46.46.46.25 0 .46-.2.46-.46s-.21-.46-.46-.46zm0-.13a.591.591 0 1 1-.002 1.178.591.591 0 0 1 .002-1.178zm-1.44-.43c-.25 0-.46.2-.46.46 0 .25.2.46.46.46.25 0 .46-.21.46-.46 0-.26-.21-.46-.46-.46zm0-.13c.33 0 .59.26.59.59 0 .33-.26.59-.59.59-.33 0-.59-.26-.59-.59 0-.33.26-.59.59-.59zm-1.47.25c-.25 0-.46.21-.46.46s.21.46.46.46.46-.21.46-.46-.21-.46-.46-.46zm0-.13c.33 0 .59.26.59.59 0 .32-.27.59-.59.59-.33 0-.59-.26-.59-.59 0-.33.26-.59.59-.59zm-1.08-1.11c-.25 0-.46.2-.46.46 0 .25.2.46.46.46.25 0 .46-.21.46-.46s-.2-.46-.46-.46zm0-.13c.33 0 .59.26.59.59 0 .33-.26.59-.59.59-.33 0-.59-.26-.59-.59 0-.32.27-.59.59-.59zm-1.4-.8c-.25 0-.46.2-.46.46 0 .25.2.46.46.46.25 0 .46-.2.46-.46s-.21-.46-.46-.46zm0-.13c.33 0 .59.26.59.59 0 .33-.26.59-.59.59-.33 0-.59-.26-.59-.59 0-.33.26-.59.59-.59zm-1.46-.41c-.25 0-.46.21-.46.46s.2.46.46.46c.25 0 .46-.21.46-.46s-.21-.46-.46-.46zm0-.13c.32 0 .59.26.59.59 0 .32-.27.59-.59.59-.33 0-.59-.26-.59-.59 0-.33.26-.59.59-.59zm-1.5-.13c-.25 0-.46.2-.46.46 0 .25.21.46.46.46.26 0 .46-.2.46-.46s-.21-.46-.46-.46zm0-.13a.591.591 0 1 1-.002 1.178.591.591 0 0 1 .002-1.178zM9.28 15.2a.822.822 0 0 0-.79-1.44c-.4.22-.55.72-.33 1.12.22.39.72.54 1.12.32zm.07.12a.958.958 0 0 1-1.3-.38.936.936 0 0 1 .38-1.29.955.955 0 0 1 1.3.37c.25.46.08 1.04-.38 1.3zm5.82-2.9c.44-.11.71-.56.59-1a.813.813 0 0 0-1-.59c-.44.11-.71.56-.59 1 .11.44.56.7 1 .59zm.03.12a.97.97 0 0 1-1.17-.69.955.955 0 0 1 1.85-.47.942.942 0 0 1-.68 1.16zm6.8-.99c.46 0 .83-.37.83-.82a.826.826 0 0 0-1.65 0c0 .45.37.82.82.82zm0 .13a.95.95 0 1 1 0-1.9c.53 0 .96.43.96.95 0 .53-.43.95-.96.95zm-8-1.56c.25 0 .46-.2.46-.46 0-.25-.2-.46-.46-.46-.25 0-.46.2-.46.46.01.26.21.46.46.46zm0 .13a.591.591 0 1 1 .002-1.182A.591.591 0 0 1 14 10.25zm.39-1.76c.25 0 .46-.2.46-.46 0-.25-.21-.46-.46-.46s-.46.2-.46.46c0 .25.2.46.46.46zm0 .13c-.33 0-.59-.26-.59-.59a.591.591 0 1 1 .59.59zM8.71 12.8c.25 0 .46-.2.46-.46 0-.25-.2-.46-.46-.46s-.46.2-.46.46.2.46.46.46zm0 .13a.591.591 0 1 1 .59-.59c0 .33-.27.59-.59.59zm.38-1.76c.25 0 .46-.21.46-.46s-.21-.46-.46-.46-.46.21-.46.46.2.46.46.46zm0 .13c-.33 0-.59-.26-.59-.59 0-.32.27-.59.59-.59.33 0 .59.26.59.59 0 .32-.27.59-.59.59zm.68-1.57c.25 0 .46-.2.46-.46 0-.25-.21-.46-.46-.46s-.46.2-.46.46.21.46.46.46zm0 .13a.591.591 0 1 1 .002-1.178.591.591 0 0 1-.002 1.178zm1.09-1.4c.25 0 .46-.21.46-.46s-.21-.46-.46-.46-.46.2-.46.46c0 .25.21.46.46.46zm0 .13a.591.591 0 1 1 .59-.59c0 .32-.26.59-.59.59zm1.34-1.1c.25 0 .46-.2.46-.46 0-.25-.2-.46-.46-.46-.25 0-.46.2-.46.46 0 .25.21.46.46.46zm0 .13a.591.591 0 1 1 .002-1.182.591.591 0 0 1-.002 1.182zm1.44-.7c.25 0 .46-.21.46-.46S13.89 6 13.64 6s-.46.2-.46.46.2.46.46.46zm0 .13a.591.591 0 1 1 .002-1.178.591.591 0 0 1-.002 1.178zm1.47 0c.25 0 .46-.21.46-.46s-.21-.46-.46-.46-.46.21-.46.46.2.46.46.46zm0 .13a.591.591 0 1 1 .59-.59c0 .32-.27.59-.59.59zm1.07-1.37c.25 0 .46-.21.46-.46s-.2-.46-.46-.46c-.25 0-.46.2-.46.46s.21.46.46.46zm0 .13a.591.591 0 1 1 .002-1.178.591.591 0 0 1-.002 1.178zm1.41-1.06c.25 0 .46-.2.46-.46 0-.25-.2-.46-.46-.46-.25 0-.46.2-.46.46 0 .25.21.46.46.46zm0 .13a.591.591 0 1 1 .002-1.182.591.591 0 0 1-.002 1.182zm1.46-.67c.25 0 .46-.21.46-.46s-.21-.46-.46-.46-.46.21-.46.46.21.46.46.46zm0 .13a.591.591 0 1 1 .59-.59c0 .32-.26.59-.59.59zM22 8.82c.25 0 .46-.2.46-.46 0-.25-.21-.46-.46-.46s-.46.21-.46.46.21.46.46.46zm0 .13c-.32 0-.59-.26-.59-.59 0-.32.27-.59.59-.59a.591.591 0 0 1 0 1.18zm0-1.79c.25 0 .46-.2.46-.46 0-.25-.21-.46-.46-.46s-.46.21-.46.46.21.46.46.46zm0 .13c-.32 0-.59-.26-.59-.59 0-.32.27-.59.59-.59a.591.591 0 0 1 0 1.18zm0-1.79c.25 0 .46-.2.46-.46 0-.25-.21-.46-.46-.46s-.46.2-.46.46c0 .25.21.46.46.46zm0 .13c-.32 0-.59-.26-.59-.59 0-.32.27-.59.59-.59.33 0 .59.26.59.59 0 .33-.26.59-.59.59zm-1.45-1.56c.25 0 .46-.2.46-.46 0-.25-.21-.46-.46-.46s-.46.21-.46.46c0 .26.21.46.46.46zm0 .14a.591.591 0 1 1 .59-.59c0 .32-.27.59-.59.59zm14.97 9.55a.83.83 0 0 0-1.12.32c-.22.4-.07.9.32 1.12.4.22.9.07 1.12-.32.23-.4.08-.9-.32-1.12zm.06-.11c.46.25.63.83.38 1.29-.25.46-.83.63-1.3.38a.965.965 0 0 1-.38-1.3c.26-.46.84-.63 1.3-.37zm-25.13.32c-.12-.33-.28-.57-.63-.67.22-2.83.95-4.12 3.52-5.41.22.08.22.11.22.15 0 .39.21.57.49.78-.46.1-.87.3-.87.85 0 .46.31.71.71.83-.13.25-.15.36-.13.65-.52.25-.64.58-.5 1.11.19.75.65.83 1.37.65.11 1.18-1.19 1.62-1.82.78 0-.07-.01-.14-.03-.2a.835.835 0 0 0-1.02-.6c-.45.12-.72.57-.6 1.01.04.14.11.26.21.37.04.42-.14.81-.52 1.01-.38.21-.68.12-1.05-.02.61-.3.92-.57.65-1.29zm.04-3.06c-.25.63-.39 1.36-.46 2.25.3.13.49.44.61.74.18.47.18.96-.33 1.31.15.01.3-.02.44-.1.28-.16.44-.46.42-.76-.09-.11-.17-.25-.21-.4-.14-.55.19-1.11.74-1.25.55-.14 1.11.19 1.26.74l.03.18c.46.58 1.41.28 1.44-.47-.87.17-1.23-.26-1.38-.85-.13-.49-.08-.98.49-1.28 0-.16.02-.29.06-.42-.3-.12-.54-.4-.6-.73-.49.11-1.05.25-1.5.43-.44.17-.77.4-1.01.61zm2.87-2.82c-1.43.75-2.27 1.51-2.77 2.56.26-.19.54-.35.85-.47a10.8 10.8 0 0 1 1.53-.44v-.07c0-.43.27-.8.65-.95-.15-.17-.24-.39-.26-.63zm19.8 7.19a.99.99 0 0 1-.51-1.01c.1-.11.17-.22.21-.37.12-.45-.15-.9-.6-1.01a.84.84 0 0 0-1.02.6c-.02.07-.02.13-.03.2-.63.84-1.93.39-1.82-.78.72.18 1.18.1 1.37-.65.14-.53.02-.86-.5-1.11.02-.29 0-.4-.13-.65.4-.12.71-.37.71-.83 0-.55-.41-.76-.87-.85.28-.21.49-.4.49-.78 0-.03 0-.07-.01-.1l.18-.05c2.55 1.27 3.34 2.61 3.56 5.42-.35.11-.5.35-.63.67-.28.72.04.99.66 1.3-.38.13-.68.21-1.06 0zm-2.15-5.41c-.07.34-.3.61-.61.74.04.12.07.26.06.42.56.3.62.79.49 1.28-.15.59-.51 1.02-1.38.85.04.75.98 1.04 1.45.47 0-.06.01-.12.03-.18.14-.55.7-.88 1.26-.74a1.02 1.02 0 0 1 .53 1.65c-.03.49.39.89.86.86-.51-.36-.51-.84-.33-1.31.12-.3.3-.61.61-.74-.07-.89-.21-1.62-.46-2.25a3.5 3.5 0 0 0-1.01-.61c-.45-.19-1.01-.33-1.5-.44zm-.36-1.81c-.01.25-.11.48-.27.65.38.15.65.52.65.95v.07c.51.11 1.05.25 1.53.44.34.13.62.3.85.47-.49-1.04-1.33-1.81-2.76-2.58zm-2.98 8.82l-1.45-1.01 1.76-.19 1.45 1.01-1.76.19zm-2.72-.59a.591.591 0 1 1 .002-1.182.591.591 0 0 1-.002 1.182zm0-.13c.26 0 .46-.2.46-.46 0-.25-.2-.46-.46-.46-.25 0-.46.21-.46.46 0 .26.2.46.46.46zm-11.57 1.53c.25 0 .46-.2.46-.46 0-.25-.2-.46-.46-.46-.25 0-.46.21-.46.46.01.26.21.46.46.46zm0 .13c-.33 0-.59-.26-.59-.59 0-.33.26-.59.59-.59.33 0 .59.26.59.59 0 .33-.26.59-.59.59zm5.68-1.66c.25 0 .46-.2.46-.46 0-.25-.21-.46-.46-.46s-.46.21-.46.46c0 .26.21.46.46.46zm0 .13a.591.591 0 1 1 .002-1.182.591.591 0 0 1-.002 1.182zm11.56 1.4c.25 0 .46-.2.46-.46 0-.25-.2-.46-.46-.46-.25 0-.46.21-.46.46 0 .26.21.46.46.46zm0 .13c-.33 0-.59-.26-.59-.59 0-.33.26-.59.59-.59.33 0 .59.26.59.59 0 .33-.26.59-.59.59zm-14.28-.94l-1.76-.19 1.45-1.01 1.76.19-1.45 1.01zm7.13-1.32L22 15.01l-1.47.55 1.47.54 1.47-.54zm.38 0l-1.85.68-1.84-.69 1.84-.68 1.85.69z" fill="#004996"/></svg>